<svg xmlns="http://www.w3.org/2000/svg" xmlns:xlink="http://www.w3.org/1999/xlink" width="377" zoomAndPan="magnify" viewBox="0 0 283.5 113.249998" height="151" preserveAspectRatio="xMidYMid meet" version="1.0"><defs><filter x="0%" y="0%" width="100%" height="100%" id="484451478e"><feColorMatrix values="0 0 0 0 1 0 0 0 0 1 0 0 0 0 1 0 0 0 1 0" color-interpolation-filters="sRGB"/></filter><g/><clipPath id="7054a2aea5"><path d="M 0.683594 0 L 282.320312 0 L 282.320312 112.503906 L 0.683594 112.503906 Z M 0.683594 0 " clip-rule="nonzero"/></clipPath><mask id="b96044a342"><g filter="url(#484451478e)"><rect x="-28.35" width="340.2" fill="#000000" y="-11.325" height="135.899997" fill-opacity="0.35"/></g></mask><clipPath id="d90d0e5fc9"><path d="M 0.683594 0.230469 L 282.320312 0.230469 L 282.320312 112.503906 L 0.683594 112.503906 Z M 0.683594 0.230469 " clip-rule="nonzero"/></clipPath><clipPath id="45902fb61e"><path d="M 9.527344 0.230469 L 273.441406 0.230469 C 278.324219 0.230469 282.285156 4.191406 282.285156 9.074219 L 282.285156 103.796875 C 282.285156 108.679688 278.324219 112.640625 273.441406 112.640625 L 9.527344 112.640625 C 4.644531 112.640625 0.683594 108.679688 0.683594 103.796875 L 0.683594 9.074219 C 0.683594 4.191406 4.644531 0.230469 9.527344 0.230469 Z M 9.527344 0.230469 " clip-rule="nonzero"/></clipPath><clipPath id="ce34fa8722"><rect x="0" width="283" y="0" height="113"/></clipPath><clipPath id="cd87c68a8b"><path d="M 30.820312 40.597656 L 252.191406 40.597656 L 252.191406 82.953125 L 30.820312 82.953125 Z M 30.820312 40.597656 " clip-rule="nonzero"/></clipPath><clipPath id="d59ef686fc"><path d="M 39.664062 40.597656 L 243.304688 40.597656 C 248.1875 40.597656 252.148438 44.554688 252.148438 49.4375 L 252.148438 74.109375 C 252.148438 78.992188 248.1875 82.953125 243.304688 82.953125 L 39.664062 82.953125 C 34.78125 82.953125 30.820312 78.992188 30.820312 74.109375 L 30.820312 49.4375 C 30.820312 44.554688 34.78125 40.597656 39.664062 40.597656 Z M 39.664062 40.597656 " clip-rule="nonzero"/></clipPath></defs><g clip-path="url(#7054a2aea5)"><g mask="url(#b96044a342)"><g transform="matrix(1, 0, 0, 1, 0, 0.000000000000002895)"><g clip-path="url(#ce34fa8722)"><g clip-path="url(#d90d0e5fc9)"><g clip-path="url(#45902fb61e)"><path fill="#ffffff" d="M 0.683594 0.230469 L 282.144531 0.230469 L 282.144531 112.640625 L 0.683594 112.640625 Z M 0.683594 0.230469 " fill-opacity="1" fill-rule="nonzero"/></g></g></g></g></g></g><g clip-path="url(#cd87c68a8b)"><g clip-path="url(#d59ef686fc)"><path fill="#d9d9d9" d="M 30.820312 40.597656 L 252.191406 40.597656 L 252.191406 82.953125 L 30.820312 82.953125 Z M 30.820312 40.597656 " fill-opacity="1" fill-rule="nonzero"/></g></g><g fill="#00853a" fill-opacity="1"><g transform="translate(11.948201, 20.327351)"><g><path d="M 2.421875 -5.875 L 1.671875 -5.875 C 1.429688 -5.875 1.226562 -5.898438 1.0625 -5.953125 C 0.894531 -6.015625 0.75 -6.113281 0.625 -6.25 C 0.363281 -6.53125 0.234375 -6.835938 0.234375 -7.171875 C 0.234375 -7.421875 0.300781 -7.65625 0.4375 -7.875 C 0.582031 -8.09375 0.753906 -8.25 0.953125 -8.34375 C 1.023438 -8.375 1.09375 -8.394531 1.15625 -8.40625 C 1.21875 -8.425781 1.296875 -8.441406 1.390625 -8.453125 C 1.492188 -8.460938 1.628906 -8.46875 1.796875 -8.46875 C 1.960938 -8.476562 2.1875 -8.484375 2.46875 -8.484375 L 5.296875 -8.484375 C 5.484375 -8.484375 5.632812 -8.484375 5.75 -8.484375 C 5.863281 -8.484375 5.945312 -8.484375 6 -8.484375 C 6.0625 -8.484375 6.109375 -8.476562 6.140625 -8.46875 C 6.171875 -8.46875 6.207031 -8.460938 6.25 -8.453125 C 6.582031 -8.410156 6.851562 -8.269531 7.0625 -8.03125 C 7.28125 -7.800781 7.390625 -7.519531 7.390625 -7.1875 C 7.390625 -7 7.347656 -6.816406 7.265625 -6.640625 C 7.179688 -6.460938 7.070312 -6.3125 6.9375 -6.1875 C 6.707031 -5.976562 6.34375 -5.875 5.84375 -5.875 L 5.234375 -5.875 L 5.234375 -1.65625 C 5.234375 -1.394531 5.210938 -1.179688 5.171875 -1.015625 C 5.140625 -0.859375 5.078125 -0.710938 4.984375 -0.578125 C 4.859375 -0.367188 4.695312 -0.207031 4.5 -0.09375 C 4.300781 0.0078125 4.078125 0.0625 3.828125 0.0625 C 3.585938 0.0625 3.367188 0.015625 3.171875 -0.078125 C 2.972656 -0.179688 2.804688 -0.328125 2.671875 -0.515625 C 2.578125 -0.660156 2.507812 -0.8125 2.46875 -0.96875 C 2.4375 -1.125 2.421875 -1.34375 2.421875 -1.625 Z M 2.421875 -5.875 "/></g></g></g><g fill="#00853a" fill-opacity="1"><g transform="translate(19.632083, 20.327351)"><g><path d="M 3.0625 -1.109375 C 2.882812 -0.691406 2.679688 -0.390625 2.453125 -0.203125 C 2.234375 -0.0234375 1.953125 0.0625 1.609375 0.0625 C 1.421875 0.0625 1.238281 0.0234375 1.0625 -0.046875 C 0.894531 -0.117188 0.75 -0.21875 0.625 -0.34375 C 0.5 -0.46875 0.398438 -0.613281 0.328125 -0.78125 C 0.265625 -0.957031 0.234375 -1.140625 0.234375 -1.328125 C 0.234375 -1.566406 0.289062 -1.816406 0.40625 -2.078125 L 3.0625 -7.703125 C 3.1875 -7.972656 3.363281 -8.179688 3.59375 -8.328125 C 3.820312 -8.472656 4.070312 -8.546875 4.34375 -8.546875 C 4.632812 -8.546875 4.894531 -8.472656 5.125 -8.328125 C 5.351562 -8.179688 5.53125 -7.96875 5.65625 -7.6875 L 8.328125 -2 C 8.441406 -1.78125 8.5 -1.554688 8.5 -1.328125 C 8.5 -1.128906 8.457031 -0.945312 8.375 -0.78125 C 8.300781 -0.613281 8.203125 -0.46875 8.078125 -0.34375 C 7.953125 -0.21875 7.800781 -0.117188 7.625 -0.046875 C 7.457031 0.0234375 7.273438 0.0625 7.078125 0.0625 C 6.753906 0.0625 6.484375 -0.0195312 6.265625 -0.1875 C 6.054688 -0.363281 5.851562 -0.671875 5.65625 -1.109375 Z M 4.78125 -3.125 L 4.34375 -4.140625 L 3.921875 -3.125 Z M 4.78125 -3.125 "/></g></g></g><g fill="#00853a" fill-opacity="1"><g transform="translate(28.422743, 20.327351)"><g><path d="M 3.46875 -3.34375 L 3.46875 -1.5625 C 3.46875 -1.28125 3.441406 -1.0625 3.390625 -0.90625 C 3.347656 -0.75 3.269531 -0.59375 3.15625 -0.4375 C 3.019531 -0.28125 2.859375 -0.15625 2.671875 -0.0625 C 2.484375 0.0195312 2.285156 0.0625 2.078125 0.0625 C 1.859375 0.0625 1.648438 0.015625 1.453125 -0.078125 C 1.253906 -0.179688 1.085938 -0.316406 0.953125 -0.484375 C 0.835938 -0.640625 0.757812 -0.796875 0.71875 -0.953125 C 0.675781 -1.117188 0.65625 -1.359375 0.65625 -1.671875 L 0.65625 -7.046875 C 0.65625 -7.503906 0.789062 -7.867188 1.0625 -8.140625 C 1.332031 -8.410156 1.6875 -8.546875 2.125 -8.546875 C 2.320312 -8.546875 2.503906 -8.5 2.671875 -8.40625 C 2.835938 -8.320312 3.003906 -8.179688 3.171875 -7.984375 L 5.390625 -5.25 L 5.390625 -6.828125 C 5.390625 -7.109375 5.40625 -7.328125 5.4375 -7.484375 C 5.476562 -7.640625 5.546875 -7.789062 5.640625 -7.9375 C 5.765625 -8.125 5.929688 -8.269531 6.140625 -8.375 C 6.347656 -8.488281 6.566406 -8.546875 6.796875 -8.546875 C 7.003906 -8.546875 7.195312 -8.5 7.375 -8.40625 C 7.5625 -8.320312 7.722656 -8.195312 7.859375 -8.03125 C 7.972656 -7.882812 8.054688 -7.726562 8.109375 -7.5625 C 8.160156 -7.394531 8.1875 -7.179688 8.1875 -6.921875 L 8.1875 -1.734375 C 8.1875 -1.390625 8.164062 -1.128906 8.125 -0.953125 C 8.082031 -0.785156 8.003906 -0.617188 7.890625 -0.453125 C 7.753906 -0.285156 7.59375 -0.15625 7.40625 -0.0625 C 7.21875 0.0195312 7.015625 0.0625 6.796875 0.0625 C 6.347656 0.0625 5.976562 -0.128906 5.6875 -0.515625 Z M 3.46875 -3.34375 "/></g></g></g><g fill="#00853a" fill-opacity="1"><g transform="translate(37.340612, 20.327351)"><g><path d="M 3.484375 -3.015625 L 3.484375 -1.546875 C 3.484375 -1.054688 3.351562 -0.664062 3.09375 -0.375 C 2.84375 -0.0820312 2.503906 0.0625 2.078125 0.0625 C 1.640625 0.0625 1.289062 -0.078125 1.03125 -0.359375 C 0.78125 -0.648438 0.65625 -1.039062 0.65625 -1.53125 L 0.65625 -6.984375 C 0.65625 -7.453125 0.78125 -7.828125 1.03125 -8.109375 C 1.289062 -8.398438 1.632812 -8.546875 2.0625 -8.546875 C 2.257812 -8.546875 2.453125 -8.503906 2.640625 -8.421875 C 2.828125 -8.335938 2.984375 -8.222656 3.109375 -8.078125 C 3.242188 -7.929688 3.335938 -7.769531 3.390625 -7.59375 C 3.453125 -7.425781 3.484375 -7.21875 3.484375 -6.96875 L 3.484375 -5.609375 L 5.03125 -7.890625 C 5.320312 -8.328125 5.707031 -8.546875 6.1875 -8.546875 C 6.375 -8.546875 6.554688 -8.503906 6.734375 -8.421875 C 6.910156 -8.347656 7.0625 -8.25 7.1875 -8.125 C 7.3125 -8 7.410156 -7.847656 7.484375 -7.671875 C 7.566406 -7.503906 7.609375 -7.328125 7.609375 -7.140625 C 7.609375 -6.867188 7.535156 -6.625 7.390625 -6.40625 L 5.96875 -4.34375 L 7.6875 -2.125 C 7.875 -1.90625 7.96875 -1.648438 7.96875 -1.359375 C 7.96875 -1.160156 7.925781 -0.972656 7.84375 -0.796875 C 7.769531 -0.628906 7.664062 -0.484375 7.53125 -0.359375 C 7.40625 -0.234375 7.257812 -0.128906 7.09375 -0.046875 C 6.925781 0.0234375 6.75 0.0625 6.5625 0.0625 C 6.363281 0.0625 6.175781 0.0234375 6 -0.046875 C 5.820312 -0.128906 5.679688 -0.234375 5.578125 -0.359375 Z M 3.484375 -3.015625 "/></g></g></g><g fill="#00853a" fill-opacity="1"><g transform="translate(45.584242, 20.327351)"><g/></g></g><g fill="#00853a" fill-opacity="1"><g transform="translate(49.426207, 20.327351)"><g><path d="M 6.421875 -3.4375 C 6.535156 -3.550781 6.679688 -3.644531 6.859375 -3.71875 C 7.035156 -3.800781 7.210938 -3.84375 7.390625 -3.84375 C 7.578125 -3.84375 7.753906 -3.800781 7.921875 -3.71875 C 8.085938 -3.644531 8.234375 -3.546875 8.359375 -3.421875 C 8.492188 -3.296875 8.597656 -3.148438 8.671875 -2.984375 C 8.742188 -2.816406 8.78125 -2.644531 8.78125 -2.46875 C 8.78125 -1.957031 8.476562 -1.4375 7.875 -0.90625 C 7.457031 -0.550781 6.992188 -0.273438 6.484375 -0.078125 C 5.972656 0.117188 5.445312 0.21875 4.90625 0.21875 C 4.289062 0.21875 3.707031 0.101562 3.15625 -0.125 C 2.613281 -0.363281 2.140625 -0.679688 1.734375 -1.078125 C 1.328125 -1.472656 1.003906 -1.941406 0.765625 -2.484375 C 0.535156 -3.035156 0.421875 -3.613281 0.421875 -4.21875 C 0.421875 -4.84375 0.535156 -5.425781 0.765625 -5.96875 C 1.003906 -6.507812 1.328125 -6.976562 1.734375 -7.375 C 2.148438 -7.78125 2.628906 -8.097656 3.171875 -8.328125 C 3.722656 -8.566406 4.304688 -8.6875 4.921875 -8.6875 C 5.441406 -8.6875 5.941406 -8.597656 6.421875 -8.421875 C 6.898438 -8.253906 7.347656 -8 7.765625 -7.65625 C 8.441406 -7.101562 8.78125 -6.546875 8.78125 -5.984375 C 8.78125 -5.785156 8.742188 -5.597656 8.671875 -5.421875 C 8.609375 -5.253906 8.507812 -5.109375 8.375 -4.984375 C 8.25 -4.859375 8.101562 -4.757812 7.9375 -4.6875 C 7.769531 -4.613281 7.585938 -4.578125 7.390625 -4.578125 C 7.222656 -4.578125 7.054688 -4.609375 6.890625 -4.671875 C 6.734375 -4.734375 6.609375 -4.816406 6.515625 -4.921875 L 6.109375 -5.375 C 5.953125 -5.539062 5.765625 -5.664062 5.546875 -5.75 C 5.335938 -5.832031 5.117188 -5.875 4.890625 -5.875 C 4.660156 -5.875 4.441406 -5.832031 4.234375 -5.75 C 4.035156 -5.664062 3.859375 -5.546875 3.703125 -5.390625 C 3.554688 -5.242188 3.441406 -5.066406 3.359375 -4.859375 C 3.273438 -4.660156 3.234375 -4.445312 3.234375 -4.21875 C 3.234375 -3.988281 3.273438 -3.773438 3.359375 -3.578125 C 3.441406 -3.378906 3.554688 -3.203125 3.703125 -3.046875 C 3.859375 -2.898438 4.035156 -2.78125 4.234375 -2.6875 C 4.441406 -2.601562 4.660156 -2.5625 4.890625 -2.5625 C 5.117188 -2.5625 5.335938 -2.609375 5.546875 -2.703125 C 5.765625 -2.804688 5.957031 -2.945312 6.125 -3.125 Z M 6.421875 -3.4375 "/></g></g></g><g fill="#00853a" fill-opacity="1"><g transform="translate(58.598511, 20.327351)"><g><path d="M 2.21875 0 C 1.675781 0 1.285156 -0.144531 1.046875 -0.4375 C 0.960938 -0.53125 0.894531 -0.617188 0.84375 -0.703125 C 0.789062 -0.796875 0.75 -0.898438 0.71875 -1.015625 C 0.695312 -1.140625 0.679688 -1.289062 0.671875 -1.46875 C 0.660156 -1.65625 0.65625 -1.894531 0.65625 -2.1875 L 0.65625 -6.96875 C 0.65625 -7.445312 0.78125 -7.828125 1.03125 -8.109375 C 1.28125 -8.398438 1.617188 -8.546875 2.046875 -8.546875 C 2.265625 -8.546875 2.472656 -8.5 2.671875 -8.40625 C 2.867188 -8.3125 3.023438 -8.1875 3.140625 -8.03125 C 3.203125 -7.945312 3.253906 -7.863281 3.296875 -7.78125 C 3.335938 -7.707031 3.367188 -7.613281 3.390625 -7.5 C 3.421875 -7.394531 3.4375 -7.273438 3.4375 -7.140625 C 3.445312 -7.003906 3.453125 -6.835938 3.453125 -6.640625 L 3.453125 -2.625 L 4.828125 -2.625 C 5.066406 -2.625 5.257812 -2.601562 5.40625 -2.5625 C 5.5625 -2.519531 5.703125 -2.453125 5.828125 -2.359375 C 5.992188 -2.242188 6.125 -2.09375 6.21875 -1.90625 C 6.3125 -1.71875 6.359375 -1.523438 6.359375 -1.328125 C 6.359375 -1.140625 6.316406 -0.953125 6.234375 -0.765625 C 6.160156 -0.585938 6.054688 -0.4375 5.921875 -0.3125 C 5.796875 -0.195312 5.65625 -0.113281 5.5 -0.0625 C 5.34375 -0.0195312 5.140625 0 4.890625 0 Z M 2.21875 0 "/></g></g></g><g fill="#00853a" fill-opacity="1"><g transform="translate(65.264661, 20.327351)"><g><path d="M 2.578125 0 C 2.253906 0 2.023438 -0.00390625 1.890625 -0.015625 C 1.753906 -0.0351562 1.628906 -0.0664062 1.515625 -0.109375 C 1.066406 -0.296875 0.800781 -0.632812 0.71875 -1.125 C 0.707031 -1.175781 0.695312 -1.21875 0.6875 -1.25 C 0.675781 -1.289062 0.664062 -1.335938 0.65625 -1.390625 C 0.65625 -1.453125 0.65625 -1.523438 0.65625 -1.609375 C 0.65625 -1.703125 0.65625 -1.820312 0.65625 -1.96875 L 0.65625 -6.578125 C 0.65625 -6.753906 0.65625 -6.894531 0.65625 -7 C 0.664062 -7.113281 0.675781 -7.207031 0.6875 -7.28125 C 0.695312 -7.351562 0.707031 -7.414062 0.71875 -7.46875 C 0.738281 -7.519531 0.757812 -7.578125 0.78125 -7.640625 C 0.84375 -7.804688 0.9375 -7.945312 1.0625 -8.0625 C 1.1875 -8.175781 1.320312 -8.269531 1.46875 -8.34375 C 1.539062 -8.375 1.601562 -8.394531 1.65625 -8.40625 C 1.71875 -8.425781 1.789062 -8.441406 1.875 -8.453125 C 1.957031 -8.460938 2.054688 -8.46875 2.171875 -8.46875 C 2.296875 -8.476562 2.460938 -8.484375 2.671875 -8.484375 L 4.34375 -8.484375 C 4.550781 -8.484375 4.710938 -8.484375 4.828125 -8.484375 C 4.953125 -8.484375 5.046875 -8.476562 5.109375 -8.46875 C 5.179688 -8.457031 5.238281 -8.445312 5.28125 -8.4375 C 5.320312 -8.4375 5.367188 -8.429688 5.421875 -8.421875 C 5.710938 -8.347656 5.945312 -8.195312 6.125 -7.96875 C 6.300781 -7.75 6.390625 -7.492188 6.390625 -7.203125 C 6.390625 -6.992188 6.347656 -6.796875 6.265625 -6.609375 C 6.179688 -6.429688 6.066406 -6.285156 5.921875 -6.171875 C 5.796875 -6.054688 5.648438 -5.972656 5.484375 -5.921875 C 5.328125 -5.878906 5.117188 -5.859375 4.859375 -5.859375 L 3.453125 -5.859375 L 3.453125 -5.28125 L 4.5625 -5.28125 C 4.914062 -5.28125 5.191406 -5.1875 5.390625 -5 C 5.597656 -4.8125 5.703125 -4.570312 5.703125 -4.28125 C 5.703125 -3.945312 5.578125 -3.675781 5.328125 -3.46875 C 5.210938 -3.382812 5.09375 -3.328125 4.96875 -3.296875 C 4.851562 -3.265625 4.6875 -3.25 4.46875 -3.25 L 3.453125 -3.25 L 3.453125 -2.625 L 4.75 -2.625 C 5.050781 -2.625 5.285156 -2.597656 5.453125 -2.546875 C 5.617188 -2.503906 5.773438 -2.421875 5.921875 -2.296875 C 6.222656 -2.035156 6.375 -1.707031 6.375 -1.3125 C 6.375 -1.113281 6.332031 -0.921875 6.25 -0.734375 C 6.164062 -0.554688 6.054688 -0.410156 5.921875 -0.296875 C 5.847656 -0.234375 5.773438 -0.179688 5.703125 -0.140625 C 5.628906 -0.109375 5.550781 -0.0820312 5.46875 -0.0625 C 5.382812 -0.0390625 5.285156 -0.0234375 5.171875 -0.015625 C 5.054688 -0.00390625 4.914062 0 4.75 0 Z M 2.578125 0 "/></g></g></g><g fill="#00853a" fill-opacity="1"><g transform="translate(72.019867, 20.327351)"><g><path d="M 3.0625 -1.109375 C 2.882812 -0.691406 2.679688 -0.390625 2.453125 -0.203125 C 2.234375 -0.0234375 1.953125 0.0625 1.609375 0.0625 C 1.421875 0.0625 1.238281 0.0234375 1.0625 -0.046875 C 0.894531 -0.117188 0.75 -0.21875 0.625 -0.34375 C 0.5 -0.46875 0.398438 -0.613281 0.328125 -0.78125 C 0.265625 -0.957031 0.234375 -1.140625 0.234375 -1.328125 C 0.234375 -1.566406 0.289062 -1.816406 0.40625 -2.078125 L 3.0625 -7.703125 C 3.1875 -7.972656 3.363281 -8.179688 3.59375 -8.328125 C 3.820312 -8.472656 4.070312 -8.546875 4.34375 -8.546875 C 4.632812 -8.546875 4.894531 -8.472656 5.125 -8.328125 C 5.351562 -8.179688 5.53125 -7.96875 5.65625 -7.6875 L 8.328125 -2 C 8.441406 -1.78125 8.5 -1.554688 8.5 -1.328125 C 8.5 -1.128906 8.457031 -0.945312 8.375 -0.78125 C 8.300781 -0.613281 8.203125 -0.46875 8.078125 -0.34375 C 7.953125 -0.21875 7.800781 -0.117188 7.625 -0.046875 C 7.457031 0.0234375 7.273438 0.0625 7.078125 0.0625 C 6.753906 0.0625 6.484375 -0.0195312 6.265625 -0.1875 C 6.054688 -0.363281 5.851562 -0.671875 5.65625 -1.109375 Z M 4.78125 -3.125 L 4.34375 -4.140625 L 3.921875 -3.125 Z M 4.78125 -3.125 "/></g></g></g><g fill="#00853a" fill-opacity="1"><g transform="translate(80.810527, 20.327351)"><g><path d="M 3.46875 -3.34375 L 3.46875 -1.5625 C 3.46875 -1.28125 3.441406 -1.0625 3.390625 -0.90625 C 3.347656 -0.75 3.269531 -0.59375 3.15625 -0.4375 C 3.019531 -0.28125 2.859375 -0.15625 2.671875 -0.0625 C 2.484375 0.0195312 2.285156 0.0625 2.078125 0.0625 C 1.859375 0.0625 1.648438 0.015625 1.453125 -0.078125 C 1.253906 -0.179688 1.085938 -0.316406 0.953125 -0.484375 C 0.835938 -0.640625 0.757812 -0.796875 0.71875 -0.953125 C 0.675781 -1.117188 0.65625 -1.359375 0.65625 -1.671875 L 0.65625 -7.046875 C 0.65625 -7.503906 0.789062 -7.867188 1.0625 -8.140625 C 1.332031 -8.410156 1.6875 -8.546875 2.125 -8.546875 C 2.320312 -8.546875 2.503906 -8.5 2.671875 -8.40625 C 2.835938 -8.320312 3.003906 -8.179688 3.171875 -7.984375 L 5.390625 -5.25 L 5.390625 -6.828125 C 5.390625 -7.109375 5.40625 -7.328125 5.4375 -7.484375 C 5.476562 -7.640625 5.546875 -7.789062 5.640625 -7.9375 C 5.765625 -8.125 5.929688 -8.269531 6.140625 -8.375 C 6.347656 -8.488281 6.566406 -8.546875 6.796875 -8.546875 C 7.003906 -8.546875 7.195312 -8.5 7.375 -8.40625 C 7.5625 -8.320312 7.722656 -8.195312 7.859375 -8.03125 C 7.972656 -7.882812 8.054688 -7.726562 8.109375 -7.5625 C 8.160156 -7.394531 8.1875 -7.179688 8.1875 -6.921875 L 8.1875 -1.734375 C 8.1875 -1.390625 8.164062 -1.128906 8.125 -0.953125 C 8.082031 -0.785156 8.003906 -0.617188 7.890625 -0.453125 C 7.753906 -0.285156 7.59375 -0.15625 7.40625 -0.0625 C 7.21875 0.0195312 7.015625 0.0625 6.796875 0.0625 C 6.347656 0.0625 5.976562 -0.128906 5.6875 -0.515625 Z M 3.46875 -3.34375 "/></g></g></g><g fill="#00853a" fill-opacity="1"><g transform="translate(89.728398, 20.327351)"><g><path d="M 0.65625 -6.796875 C 0.65625 -6.984375 0.660156 -7.140625 0.671875 -7.265625 C 0.679688 -7.390625 0.695312 -7.5 0.71875 -7.59375 C 0.75 -7.6875 0.785156 -7.769531 0.828125 -7.84375 C 0.878906 -7.925781 0.941406 -8.007812 1.015625 -8.09375 C 1.273438 -8.394531 1.617188 -8.546875 2.046875 -8.546875 C 2.472656 -8.546875 2.820312 -8.398438 3.09375 -8.109375 C 3.238281 -7.941406 3.332031 -7.769531 3.375 -7.59375 C 3.425781 -7.414062 3.453125 -7.148438 3.453125 -6.796875 L 3.453125 -1.546875 C 3.453125 -1.273438 3.425781 -1.050781 3.375 -0.875 C 3.320312 -0.707031 3.234375 -0.550781 3.109375 -0.40625 C 2.972656 -0.257812 2.8125 -0.144531 2.625 -0.0625 C 2.4375 0.0195312 2.25 0.0625 2.0625 0.0625 C 1.863281 0.0625 1.671875 0.0234375 1.484375 -0.046875 C 1.296875 -0.128906 1.140625 -0.238281 1.015625 -0.375 C 0.878906 -0.519531 0.785156 -0.675781 0.734375 -0.84375 C 0.679688 -1.019531 0.65625 -1.253906 0.65625 -1.546875 Z M 0.65625 -6.796875 "/></g></g></g><g fill="#00853a" fill-opacity="1"><g transform="translate(93.901125, 20.327351)"><g><path d="M 3.46875 -3.34375 L 3.46875 -1.5625 C 3.46875 -1.28125 3.441406 -1.0625 3.390625 -0.90625 C 3.347656 -0.75 3.269531 -0.59375 3.15625 -0.4375 C 3.019531 -0.28125 2.859375 -0.15625 2.671875 -0.0625 C 2.484375 0.0195312 2.285156 0.0625 2.078125 0.0625 C 1.859375 0.0625 1.648438 0.015625 1.453125 -0.078125 C 1.253906 -0.179688 1.085938 -0.316406 0.953125 -0.484375 C 0.835938 -0.640625 0.757812 -0.796875 0.71875 -0.953125 C 0.675781 -1.117188 0.65625 -1.359375 0.65625 -1.671875 L 0.65625 -7.046875 C 0.65625 -7.503906 0.789062 -7.867188 1.0625 -8.140625 C 1.332031 -8.410156 1.6875 -8.546875 2.125 -8.546875 C 2.320312 -8.546875 2.503906 -8.5 2.671875 -8.40625 C 2.835938 -8.320312 3.003906 -8.179688 3.171875 -7.984375 L 5.390625 -5.25 L 5.390625 -6.828125 C 5.390625 -7.109375 5.40625 -7.328125 5.4375 -7.484375 C 5.476562 -7.640625 5.546875 -7.789062 5.640625 -7.9375 C 5.765625 -8.125 5.929688 -8.269531 6.140625 -8.375 C 6.347656 -8.488281 6.566406 -8.546875 6.796875 -8.546875 C 7.003906 -8.546875 7.195312 -8.5 7.375 -8.40625 C 7.5625 -8.320312 7.722656 -8.195312 7.859375 -8.03125 C 7.972656 -7.882812 8.054688 -7.726562 8.109375 -7.5625 C 8.160156 -7.394531 8.1875 -7.179688 8.1875 -6.921875 L 8.1875 -1.734375 C 8.1875 -1.390625 8.164062 -1.128906 8.125 -0.953125 C 8.082031 -0.785156 8.003906 -0.617188 7.890625 -0.453125 C 7.753906 -0.285156 7.59375 -0.15625 7.40625 -0.0625 C 7.21875 0.0195312 7.015625 0.0625 6.796875 0.0625 C 6.347656 0.0625 5.976562 -0.128906 5.6875 -0.515625 Z M 3.46875 -3.34375 "/></g></g></g><g fill="#00853a" fill-opacity="1"><g transform="translate(102.818996, 20.327351)"><g><path d="M 5.453125 -2.90625 C 5.078125 -2.90625 4.785156 -2.992188 4.578125 -3.171875 C 4.367188 -3.359375 4.265625 -3.613281 4.265625 -3.9375 C 4.265625 -4.613281 4.703125 -4.953125 5.578125 -4.953125 L 6.53125 -4.9375 C 6.78125 -4.925781 6.984375 -4.914062 7.140625 -4.90625 C 7.304688 -4.894531 7.445312 -4.867188 7.5625 -4.828125 C 7.675781 -4.796875 7.769531 -4.753906 7.84375 -4.703125 C 7.925781 -4.648438 8 -4.582031 8.0625 -4.5 C 8.175781 -4.351562 8.265625 -4.1875 8.328125 -4 C 8.390625 -3.820312 8.421875 -3.601562 8.421875 -3.34375 L 8.40625 -2.546875 C 8.394531 -2.367188 8.382812 -2.226562 8.375 -2.125 C 8.375 -2.03125 8.375 -1.953125 8.375 -1.890625 C 8.375 -1.835938 8.367188 -1.789062 8.359375 -1.75 C 8.347656 -1.707031 8.332031 -1.660156 8.3125 -1.609375 C 8.25 -1.390625 8.09375 -1.160156 7.84375 -0.921875 C 7.601562 -0.691406 7.296875 -0.476562 6.921875 -0.28125 C 6.285156 0.0507812 5.613281 0.21875 4.90625 0.21875 C 4.289062 0.21875 3.707031 0.101562 3.15625 -0.125 C 2.613281 -0.363281 2.140625 -0.679688 1.734375 -1.078125 C 1.328125 -1.484375 1.003906 -1.957031 0.765625 -2.5 C 0.535156 -3.039062 0.421875 -3.625 0.421875 -4.25 C 0.421875 -4.851562 0.535156 -5.425781 0.765625 -5.96875 C 1.003906 -6.519531 1.328125 -6.992188 1.734375 -7.390625 C 2.140625 -7.785156 2.613281 -8.097656 3.15625 -8.328125 C 3.695312 -8.566406 4.273438 -8.6875 4.890625 -8.6875 C 5.304688 -8.6875 5.71875 -8.628906 6.125 -8.515625 C 6.53125 -8.398438 6.914062 -8.234375 7.28125 -8.015625 C 7.863281 -7.640625 8.15625 -7.203125 8.15625 -6.703125 C 8.15625 -6.503906 8.113281 -6.320312 8.03125 -6.15625 C 7.957031 -5.988281 7.859375 -5.835938 7.734375 -5.703125 C 7.609375 -5.578125 7.457031 -5.476562 7.28125 -5.40625 C 7.101562 -5.332031 6.921875 -5.296875 6.734375 -5.296875 C 6.660156 -5.296875 6.585938 -5.300781 6.515625 -5.3125 C 6.453125 -5.332031 6.398438 -5.351562 6.359375 -5.375 L 5.734375 -5.703125 C 5.578125 -5.765625 5.425781 -5.816406 5.28125 -5.859375 C 5.132812 -5.898438 4.988281 -5.921875 4.84375 -5.921875 C 4.625 -5.921875 4.414062 -5.875 4.21875 -5.78125 C 4.03125 -5.695312 3.863281 -5.578125 3.71875 -5.421875 C 3.570312 -5.273438 3.453125 -5.097656 3.359375 -4.890625 C 3.273438 -4.691406 3.234375 -4.484375 3.234375 -4.265625 C 3.234375 -4.035156 3.273438 -3.816406 3.359375 -3.609375 C 3.453125 -3.410156 3.570312 -3.234375 3.71875 -3.078125 C 3.863281 -2.929688 4.035156 -2.8125 4.234375 -2.71875 C 4.441406 -2.632812 4.660156 -2.59375 4.890625 -2.59375 C 5.066406 -2.59375 5.222656 -2.613281 5.359375 -2.65625 C 5.492188 -2.707031 5.660156 -2.789062 5.859375 -2.90625 Z M 5.453125 -2.90625 "/></g></g></g><g fill="#00853a" fill-opacity="1"><g transform="translate(111.711432, 20.327351)"><g/></g></g><g fill="#00853a" fill-opacity="1"><g transform="translate(115.553397, 20.327351)"><g><path d="M 3.609375 0.21875 C 3.160156 0.21875 2.738281 0.160156 2.34375 0.046875 C 1.957031 -0.0546875 1.617188 -0.207031 1.328125 -0.40625 C 1.046875 -0.601562 0.820312 -0.828125 0.65625 -1.078125 C 0.5 -1.335938 0.421875 -1.625 0.421875 -1.9375 C 0.421875 -2.113281 0.453125 -2.273438 0.515625 -2.421875 C 0.578125 -2.578125 0.664062 -2.710938 0.78125 -2.828125 C 0.894531 -2.941406 1.03125 -3.03125 1.1875 -3.09375 C 1.34375 -3.164062 1.507812 -3.203125 1.6875 -3.203125 C 1.863281 -3.203125 2.03125 -3.171875 2.1875 -3.109375 C 2.34375 -3.046875 2.507812 -2.941406 2.6875 -2.796875 C 2.832031 -2.679688 2.953125 -2.585938 3.046875 -2.515625 C 3.140625 -2.453125 3.21875 -2.398438 3.28125 -2.359375 C 3.34375 -2.316406 3.394531 -2.289062 3.4375 -2.28125 C 3.476562 -2.28125 3.523438 -2.28125 3.578125 -2.28125 C 3.679688 -2.28125 3.765625 -2.3125 3.828125 -2.375 C 3.898438 -2.445312 3.9375 -2.535156 3.9375 -2.640625 C 3.9375 -2.785156 3.863281 -2.90625 3.71875 -3 C 3.695312 -3.007812 3.675781 -3.019531 3.65625 -3.03125 C 3.632812 -3.039062 3.601562 -3.054688 3.5625 -3.078125 C 3.53125 -3.097656 3.476562 -3.117188 3.40625 -3.140625 C 3.34375 -3.160156 3.257812 -3.195312 3.15625 -3.25 C 3.03125 -3.289062 2.910156 -3.328125 2.796875 -3.359375 C 2.691406 -3.398438 2.582031 -3.441406 2.46875 -3.484375 C 1.238281 -3.921875 0.625 -4.726562 0.625 -5.90625 C 0.625 -6.320312 0.695312 -6.695312 0.84375 -7.03125 C 1 -7.375 1.210938 -7.664062 1.484375 -7.90625 C 1.753906 -8.15625 2.082031 -8.347656 2.46875 -8.484375 C 2.851562 -8.617188 3.273438 -8.6875 3.734375 -8.6875 C 4.117188 -8.6875 4.472656 -8.632812 4.796875 -8.53125 C 5.128906 -8.4375 5.421875 -8.304688 5.671875 -8.140625 C 5.921875 -7.972656 6.113281 -7.773438 6.25 -7.546875 C 6.394531 -7.328125 6.46875 -7.085938 6.46875 -6.828125 C 6.46875 -6.492188 6.363281 -6.21875 6.15625 -6 C 5.945312 -5.78125 5.6875 -5.671875 5.375 -5.671875 C 5.175781 -5.671875 4.988281 -5.707031 4.8125 -5.78125 C 4.644531 -5.851562 4.441406 -5.976562 4.203125 -6.15625 C 4.066406 -6.269531 3.953125 -6.347656 3.859375 -6.390625 C 3.773438 -6.441406 3.695312 -6.46875 3.625 -6.46875 C 3.53125 -6.46875 3.453125 -6.429688 3.390625 -6.359375 C 3.328125 -6.296875 3.296875 -6.21875 3.296875 -6.125 C 3.296875 -6 3.351562 -5.894531 3.46875 -5.8125 C 3.582031 -5.738281 3.804688 -5.648438 4.140625 -5.546875 C 4.503906 -5.429688 4.84375 -5.296875 5.15625 -5.140625 C 5.476562 -4.984375 5.738281 -4.820312 5.9375 -4.65625 C 6.195312 -4.4375 6.40625 -4.148438 6.5625 -3.796875 C 6.71875 -3.441406 6.796875 -3.0625 6.796875 -2.65625 C 6.796875 -2.269531 6.722656 -1.898438 6.578125 -1.546875 C 6.441406 -1.203125 6.242188 -0.898438 5.984375 -0.640625 C 5.703125 -0.347656 5.367188 -0.132812 4.984375 0 C 4.597656 0.144531 4.140625 0.21875 3.609375 0.21875 Z M 3.609375 0.21875 "/></g></g></g><g fill="#00853a" fill-opacity="1"><g transform="translate(122.792025, 20.327351)"><g><path d="M 2.578125 0 C 2.253906 0 2.023438 -0.00390625 1.890625 -0.015625 C 1.753906 -0.0351562 1.628906 -0.0664062 1.515625 -0.109375 C 1.066406 -0.296875 0.800781 -0.632812 0.71875 -1.125 C 0.707031 -1.175781 0.695312 -1.21875 0.6875 -1.25 C 0.675781 -1.289062 0.664062 -1.335938 0.65625 -1.390625 C 0.65625 -1.453125 0.65625 -1.523438 0.65625 -1.609375 C 0.65625 -1.703125 0.65625 -1.820312 0.65625 -1.96875 L 0.65625 -6.578125 C 0.65625 -6.753906 0.65625 -6.894531 0.65625 -7 C 0.664062 -7.113281 0.675781 -7.207031 0.6875 -7.28125 C 0.695312 -7.351562 0.707031 -7.414062 0.71875 -7.46875 C 0.738281 -7.519531 0.757812 -7.578125 0.78125 -7.640625 C 0.84375 -7.804688 0.9375 -7.945312 1.0625 -8.0625 C 1.1875 -8.175781 1.320312 -8.269531 1.46875 -8.34375 C 1.539062 -8.375 1.601562 -8.394531 1.65625 -8.40625 C 1.71875 -8.425781 1.789062 -8.441406 1.875 -8.453125 C 1.957031 -8.460938 2.054688 -8.46875 2.171875 -8.46875 C 2.296875 -8.476562 2.460938 -8.484375 2.671875 -8.484375 L 4.34375 -8.484375 C 4.550781 -8.484375 4.710938 -8.484375 4.828125 -8.484375 C 4.953125 -8.484375 5.046875 -8.476562 5.109375 -8.46875 C 5.179688 -8.457031 5.238281 -8.445312 5.28125 -8.4375 C 5.320312 -8.4375 5.367188 -8.429688 5.421875 -8.421875 C 5.710938 -8.347656 5.945312 -8.195312 6.125 -7.96875 C 6.300781 -7.75 6.390625 -7.492188 6.390625 -7.203125 C 6.390625 -6.992188 6.347656 -6.796875 6.265625 -6.609375 C 6.179688 -6.429688 6.066406 -6.285156 5.921875 -6.171875 C 5.796875 -6.054688 5.648438 -5.972656 5.484375 -5.921875 C 5.328125 -5.878906 5.117188 -5.859375 4.859375 -5.859375 L 3.453125 -5.859375 L 3.453125 -5.28125 L 4.5625 -5.28125 C 4.914062 -5.28125 5.191406 -5.1875 5.390625 -5 C 5.597656 -4.8125 5.703125 -4.570312 5.703125 -4.28125 C 5.703125 -3.945312 5.578125 -3.675781 5.328125 -3.46875 C 5.210938 -3.382812 5.09375 -3.328125 4.96875 -3.296875 C 4.851562 -3.265625 4.6875 -3.25 4.46875 -3.25 L 3.453125 -3.25 L 3.453125 -2.625 L 4.75 -2.625 C 5.050781 -2.625 5.285156 -2.597656 5.453125 -2.546875 C 5.617188 -2.503906 5.773438 -2.421875 5.921875 -2.296875 C 6.222656 -2.035156 6.375 -1.707031 6.375 -1.3125 C 6.375 -1.113281 6.332031 -0.921875 6.25 -0.734375 C 6.164062 -0.554688 6.054688 -0.410156 5.921875 -0.296875 C 5.847656 -0.234375 5.773438 -0.179688 5.703125 -0.140625 C 5.628906 -0.109375 5.550781 -0.0820312 5.46875 -0.0625 C 5.382812 -0.0390625 5.285156 -0.0234375 5.171875 -0.015625 C 5.054688 -0.00390625 4.914062 0 4.75 0 Z M 2.578125 0 "/></g></g></g><g fill="#00853a" fill-opacity="1"><g transform="translate(129.547228, 20.327351)"><g><path d="M 3.453125 -2.5 L 3.453125 -1.34375 C 3.453125 -1.144531 3.414062 -0.957031 3.34375 -0.78125 C 3.28125 -0.613281 3.1875 -0.46875 3.0625 -0.34375 C 2.9375 -0.21875 2.789062 -0.117188 2.625 -0.046875 C 2.457031 0.0234375 2.273438 0.0625 2.078125 0.0625 C 1.867188 0.0625 1.664062 0.0195312 1.46875 -0.0625 C 1.28125 -0.15625 1.117188 -0.28125 0.984375 -0.4375 C 0.765625 -0.71875 0.65625 -1.117188 0.65625 -1.640625 L 0.65625 -6.875 C 0.65625 -7.175781 0.6875 -7.421875 0.75 -7.609375 C 0.820312 -7.796875 0.945312 -7.960938 1.125 -8.109375 C 1.28125 -8.253906 1.441406 -8.351562 1.609375 -8.40625 C 1.785156 -8.457031 2.046875 -8.484375 2.390625 -8.484375 L 3.5625 -8.484375 C 3.90625 -8.484375 4.171875 -8.472656 4.359375 -8.453125 C 4.546875 -8.429688 4.734375 -8.398438 4.921875 -8.359375 C 5.253906 -8.265625 5.554688 -8.125 5.828125 -7.9375 C 6.097656 -7.75 6.328125 -7.523438 6.515625 -7.265625 C 6.710938 -7.003906 6.863281 -6.71875 6.96875 -6.40625 C 7.082031 -6.09375 7.140625 -5.769531 7.140625 -5.4375 C 7.140625 -5.03125 7.070312 -4.65625 6.9375 -4.3125 C 6.800781 -3.976562 6.570312 -3.628906 6.25 -3.265625 L 6.90625 -2.21875 C 7 -2.070312 7.066406 -1.921875 7.109375 -1.765625 C 7.148438 -1.609375 7.171875 -1.457031 7.171875 -1.3125 C 7.171875 -1.113281 7.132812 -0.929688 7.0625 -0.765625 C 6.988281 -0.597656 6.890625 -0.453125 6.765625 -0.328125 C 6.640625 -0.210938 6.488281 -0.117188 6.3125 -0.046875 C 6.144531 0.0234375 5.96875 0.0625 5.78125 0.0625 C 5.269531 0.0625 4.878906 -0.148438 4.609375 -0.578125 Z M 3.578125 -4.96875 L 3.765625 -4.96875 C 4.191406 -4.957031 4.40625 -5.109375 4.40625 -5.421875 C 4.40625 -5.742188 4.1875 -5.894531 3.75 -5.875 C 3.71875 -5.875 3.675781 -5.875 3.625 -5.875 C 3.582031 -5.875 3.523438 -5.878906 3.453125 -5.890625 L 3.453125 -4.96875 Z M 3.578125 -4.96875 "/></g></g></g><g fill="#00853a" fill-opacity="1"><g transform="translate(137.269268, 20.327351)"><g><path d="M 0.421875 -6.421875 C 0.285156 -6.703125 0.21875 -6.957031 0.21875 -7.1875 C 0.21875 -7.375 0.253906 -7.550781 0.328125 -7.71875 C 0.398438 -7.882812 0.5 -8.023438 0.625 -8.140625 C 0.757812 -8.265625 0.910156 -8.363281 1.078125 -8.4375 C 1.253906 -8.507812 1.441406 -8.546875 1.640625 -8.546875 C 1.941406 -8.546875 2.207031 -8.457031 2.4375 -8.28125 C 2.675781 -8.113281 2.863281 -7.867188 3 -7.546875 L 4.34375 -4.359375 L 5.796875 -7.6875 C 5.910156 -7.945312 6.082031 -8.15625 6.3125 -8.3125 C 6.550781 -8.46875 6.8125 -8.546875 7.09375 -8.546875 C 7.289062 -8.546875 7.472656 -8.507812 7.640625 -8.4375 C 7.804688 -8.363281 7.953125 -8.265625 8.078125 -8.140625 C 8.210938 -8.023438 8.316406 -7.878906 8.390625 -7.703125 C 8.460938 -7.535156 8.5 -7.359375 8.5 -7.171875 C 8.5 -6.929688 8.445312 -6.710938 8.34375 -6.515625 L 5.703125 -0.875 C 5.410156 -0.25 4.957031 0.0625 4.34375 0.0625 C 4.050781 0.0625 3.789062 -0.0078125 3.5625 -0.15625 C 3.332031 -0.3125 3.15625 -0.523438 3.03125 -0.796875 Z M 0.421875 -6.421875 "/></g></g></g><g fill="#00853a" fill-opacity="1"><g transform="translate(146.034475, 20.327351)"><g><path d="M 0.65625 -6.796875 C 0.65625 -6.984375 0.660156 -7.140625 0.671875 -7.265625 C 0.679688 -7.390625 0.695312 -7.5 0.71875 -7.59375 C 0.75 -7.6875 0.785156 -7.769531 0.828125 -7.84375 C 0.878906 -7.925781 0.941406 -8.007812 1.015625 -8.09375 C 1.273438 -8.394531 1.617188 -8.546875 2.046875 -8.546875 C 2.472656 -8.546875 2.820312 -8.398438 3.09375 -8.109375 C 3.238281 -7.941406 3.332031 -7.769531 3.375 -7.59375 C 3.425781 -7.414062 3.453125 -7.148438 3.453125 -6.796875 L 3.453125 -1.546875 C 3.453125 -1.273438 3.425781 -1.050781 3.375 -0.875 C 3.320312 -0.707031 3.234375 -0.550781 3.109375 -0.40625 C 2.972656 -0.257812 2.8125 -0.144531 2.625 -0.0625 C 2.4375 0.0195312 2.25 0.0625 2.0625 0.0625 C 1.863281 0.0625 1.671875 0.0234375 1.484375 -0.046875 C 1.296875 -0.128906 1.140625 -0.238281 1.015625 -0.375 C 0.878906 -0.519531 0.785156 -0.675781 0.734375 -0.84375 C 0.679688 -1.019531 0.65625 -1.253906 0.65625 -1.546875 Z M 0.65625 -6.796875 "/></g></g></g><g fill="#00853a" fill-opacity="1"><g transform="translate(150.207195, 20.327351)"><g><path d="M 6.421875 -3.4375 C 6.535156 -3.550781 6.679688 -3.644531 6.859375 -3.71875 C 7.035156 -3.800781 7.210938 -3.84375 7.390625 -3.84375 C 7.578125 -3.84375 7.753906 -3.800781 7.921875 -3.71875 C 8.085938 -3.644531 8.234375 -3.546875 8.359375 -3.421875 C 8.492188 -3.296875 8.597656 -3.148438 8.671875 -2.984375 C 8.742188 -2.816406 8.78125 -2.644531 8.78125 -2.46875 C 8.78125 -1.957031 8.476562 -1.4375 7.875 -0.90625 C 7.457031 -0.550781 6.992188 -0.273438 6.484375 -0.078125 C 5.972656 0.117188 5.445312 0.21875 4.90625 0.21875 C 4.289062 0.21875 3.707031 0.101562 3.15625 -0.125 C 2.613281 -0.363281 2.140625 -0.679688 1.734375 -1.078125 C 1.328125 -1.472656 1.003906 -1.941406 0.765625 -2.484375 C 0.535156 -3.035156 0.421875 -3.613281 0.421875 -4.21875 C 0.421875 -4.84375 0.535156 -5.425781 0.765625 -5.96875 C 1.003906 -6.507812 1.328125 -6.976562 1.734375 -7.375 C 2.148438 -7.78125 2.628906 -8.097656 3.171875 -8.328125 C 3.722656 -8.566406 4.304688 -8.6875 4.921875 -8.6875 C 5.441406 -8.6875 5.941406 -8.597656 6.421875 -8.421875 C 6.898438 -8.253906 7.347656 -8 7.765625 -7.65625 C 8.441406 -7.101562 8.78125 -6.546875 8.78125 -5.984375 C 8.78125 -5.785156 8.742188 -5.597656 8.671875 -5.421875 C 8.609375 -5.253906 8.507812 -5.109375 8.375 -4.984375 C 8.25 -4.859375 8.101562 -4.757812 7.9375 -4.6875 C 7.769531 -4.613281 7.585938 -4.578125 7.390625 -4.578125 C 7.222656 -4.578125 7.054688 -4.609375 6.890625 -4.671875 C 6.734375 -4.734375 6.609375 -4.816406 6.515625 -4.921875 L 6.109375 -5.375 C 5.953125 -5.539062 5.765625 -5.664062 5.546875 -5.75 C 5.335938 -5.832031 5.117188 -5.875 4.890625 -5.875 C 4.660156 -5.875 4.441406 -5.832031 4.234375 -5.75 C 4.035156 -5.664062 3.859375 -5.546875 3.703125 -5.390625 C 3.554688 -5.242188 3.441406 -5.066406 3.359375 -4.859375 C 3.273438 -4.660156 3.234375 -4.445312 3.234375 -4.21875 C 3.234375 -3.988281 3.273438 -3.773438 3.359375 -3.578125 C 3.441406 -3.378906 3.554688 -3.203125 3.703125 -3.046875 C 3.859375 -2.898438 4.035156 -2.78125 4.234375 -2.6875 C 4.441406 -2.601562 4.660156 -2.5625 4.890625 -2.5625 C 5.117188 -2.5625 5.335938 -2.609375 5.546875 -2.703125 C 5.765625 -2.804688 5.957031 -2.945312 6.125 -3.125 Z M 6.421875 -3.4375 "/></g></g></g><g fill="#00853a" fill-opacity="1"><g transform="translate(159.379492, 20.327351)"><g><path d="M 2.578125 0 C 2.253906 0 2.023438 -0.00390625 1.890625 -0.015625 C 1.753906 -0.0351562 1.628906 -0.0664062 1.515625 -0.109375 C 1.066406 -0.296875 0.800781 -0.632812 0.71875 -1.125 C 0.707031 -1.175781 0.695312 -1.21875 0.6875 -1.25 C 0.675781 -1.289062 0.664062 -1.335938 0.65625 -1.390625 C 0.65625 -1.453125 0.65625 -1.523438 0.65625 -1.609375 C 0.65625 -1.703125 0.65625 -1.820312 0.65625 -1.96875 L 0.65625 -6.578125 C 0.65625 -6.753906 0.65625 -6.894531 0.65625 -7 C 0.664062 -7.113281 0.675781 -7.207031 0.6875 -7.28125 C 0.695312 -7.351562 0.707031 -7.414062 0.71875 -7.46875 C 0.738281 -7.519531 0.757812 -7.578125 0.78125 -7.640625 C 0.84375 -7.804688 0.9375 -7.945312 1.0625 -8.0625 C 1.1875 -8.175781 1.320312 -8.269531 1.46875 -8.34375 C 1.539062 -8.375 1.601562 -8.394531 1.65625 -8.40625 C 1.71875 -8.425781 1.789062 -8.441406 1.875 -8.453125 C 1.957031 -8.460938 2.054688 -8.46875 2.171875 -8.46875 C 2.296875 -8.476562 2.460938 -8.484375 2.671875 -8.484375 L 4.34375 -8.484375 C 4.550781 -8.484375 4.710938 -8.484375 4.828125 -8.484375 C 4.953125 -8.484375 5.046875 -8.476562 5.109375 -8.46875 C 5.179688 -8.457031 5.238281 -8.445312 5.28125 -8.4375 C 5.320312 -8.4375 5.367188 -8.429688 5.421875 -8.421875 C 5.710938 -8.347656 5.945312 -8.195312 6.125 -7.96875 C 6.300781 -7.75 6.390625 -7.492188 6.390625 -7.203125 C 6.390625 -6.992188 6.347656 -6.796875 6.265625 -6.609375 C 6.179688 -6.429688 6.066406 -6.285156 5.921875 -6.171875 C 5.796875 -6.054688 5.648438 -5.972656 5.484375 -5.921875 C 5.328125 -5.878906 5.117188 -5.859375 4.859375 -5.859375 L 3.453125 -5.859375 L 3.453125 -5.28125 L 4.5625 -5.28125 C 4.914062 -5.28125 5.191406 -5.1875 5.390625 -5 C 5.597656 -4.8125 5.703125 -4.570312 5.703125 -4.28125 C 5.703125 -3.945312 5.578125 -3.675781 5.328125 -3.46875 C 5.210938 -3.382812 5.09375 -3.328125 4.96875 -3.296875 C 4.851562 -3.265625 4.6875 -3.25 4.46875 -3.25 L 3.453125 -3.25 L 3.453125 -2.625 L 4.75 -2.625 C 5.050781 -2.625 5.285156 -2.597656 5.453125 -2.546875 C 5.617188 -2.503906 5.773438 -2.421875 5.921875 -2.296875 C 6.222656 -2.035156 6.375 -1.707031 6.375 -1.3125 C 6.375 -1.113281 6.332031 -0.921875 6.25 -0.734375 C 6.164062 -0.554688 6.054688 -0.410156 5.921875 -0.296875 C 5.847656 -0.234375 5.773438 -0.179688 5.703125 -0.140625 C 5.628906 -0.109375 5.550781 -0.0820312 5.46875 -0.0625 C 5.382812 -0.0390625 5.285156 -0.0234375 5.171875 -0.015625 C 5.054688 -0.00390625 4.914062 0 4.75 0 Z M 2.578125 0 "/></g></g></g></svg>