<svg xmlns="http://www.w3.org/2000/svg" xmlns:xlink="http://www.w3.org/1999/xlink" width="377" zoomAndPan="magnify" viewBox="0 0 283.5 113.249998" height="151" preserveAspectRatio="xMidYMid meet" version="1.0"><defs><filter x="0%" y="0%" width="100%" height="100%" id="1970a97b9e"><feColorMatrix values="0 0 0 0 1 0 0 0 0 1 0 0 0 0 1 0 0 0 1 0" color-interpolation-filters="sRGB"/></filter><clipPath id="b416755eed"><path d="M 0.683594 0 L 282.320312 0 L 282.320312 112.503906 L 0.683594 112.503906 Z M 0.683594 0 " clip-rule="nonzero"/></clipPath><mask id="1899fe4352"><g filter="url(#1970a97b9e)"><rect x="-28.35" width="340.2" fill="#000000" y="-11.325" height="135.899997" fill-opacity="0.66"/></g></mask><clipPath id="82ba6028ab"><path d="M 0.683594 0 L 282.320312 0 L 282.320312 112.410156 L 0.683594 112.410156 Z M 0.683594 0 " clip-rule="nonzero"/></clipPath><clipPath id="d56b2dfd12"><path d="M 9.527344 0 L 273.441406 0 C 278.324219 0 282.285156 3.957031 282.285156 8.839844 L 282.285156 103.566406 C 282.285156 108.449219 278.324219 112.410156 273.441406 112.410156 L 9.527344 112.410156 C 4.644531 112.410156 0.683594 108.449219 0.683594 103.566406 L 0.683594 8.839844 C 0.683594 3.957031 4.644531 0 9.527344 0 Z M 9.527344 0 " clip-rule="nonzero"/></clipPath><clipPath id="c08d0f7dbf"><rect x="0" width="283" y="0" height="113"/></clipPath></defs><g clip-path="url(#b416755eed)"><g mask="url(#1899fe4352)"><g transform="matrix(1, 0, 0, 1, 0, 0.000000000000002895)"><g clip-path="url(#c08d0f7dbf)"><g clip-path="url(#82ba6028ab)"><g clip-path="url(#d56b2dfd12)"><path fill="#00853a" d="M 0.683594 0 L 282.144531 0 L 282.144531 112.410156 L 0.683594 112.410156 Z M 0.683594 0 " fill-opacity="1" fill-rule="nonzero"/></g></g></g></g></g></g></svg>