<svg xmlns="http://www.w3.org/2000/svg" xmlns:xlink="http://www.w3.org/1999/xlink" width="100%" zoomAndPan="magnify" viewBox="0 0 283.5 198.749996" height="100%" preserveAspectRatio="xMidYMid meet" version="1.0"><defs><filter x="0%" y="0%" width="100%" height="100%" id="035cffc173"><feColorMatrix values="0 0 0 0 1 0 0 0 0 1 0 0 0 0 1 0 0 0 1 0" color-interpolation-filters="sRGB"/></filter><clipPath id="13f98740e8"><path d="M 0 0.0507812 L 283 0.0507812 L 283 198.449219 L 0 198.449219 Z M 0 0.0507812 " clip-rule="nonzero"/></clipPath><mask id="47e45b4238"><g filter="url(#035cffc173)"><rect x="-28.35" width="340.2" fill="#000000" y="-19.875" height="238.499995" fill-opacity="0.51"/></g></mask><clipPath id="4759a8943a"><path d="M 0 0.0507812 L 283 0.0507812 L 283 198.125 L 0 198.125 Z M 0 0.0507812 " clip-rule="nonzero"/></clipPath><clipPath id="84fd00047a"><path d="M 14.972656 0.0507812 L 267.992188 0.0507812 C 276.261719 0.0507812 282.964844 6.753906 282.964844 15.023438 L 282.964844 183.152344 C 282.964844 191.421875 276.261719 198.125 267.992188 198.125 L 14.972656 198.125 C 6.703125 198.125 0 191.421875 0 183.152344 L 0 15.023438 C 0 6.753906 6.703125 0.0507812 14.972656 0.0507812 Z M 14.972656 0.0507812 " clip-rule="nonzero"/></clipPath><clipPath id="a447c808da"><rect x="0" width="283" y="0" height="199"/></clipPath></defs><g clip-path="url(#13f98740e8)"><g mask="url(#47e45b4238)"><g transform="matrix(1, 0, 0, 1, 0, 0.000000000000016522)"><g clip-path="url(#a447c808da)"><g clip-path="url(#4759a8943a)"><g clip-path="url(#84fd00047a)"><path fill="#5ce1e6" d="M 0 0.0507812 L 283.1875 0.0507812 L 283.1875 198.125 L 0 198.125 Z M 0 0.0507812 " fill-opacity="1" fill-rule="nonzero"/></g></g></g></g></g></g></svg>
